<svg width="88" height="88" viewBox="0 0 88 88" fill="none" xmlns="http://www.w3.org/2000/svg">
<path d="M35.6034 41.3968C34.9129 40.7064 33.9765 40.3185 33 40.3185C32.0236 40.3185 31.0871 40.7064 30.3967 41.3968C29.7062 42.0872 29.3184 43.0237 29.3184 44.0001C29.3184 44.9766 29.7062 45.913 30.3967 46.6035L41.3967 57.6035C41.7393 57.9433 42.1456 58.2122 42.5924 58.3946C43.0391 58.5771 43.5175 58.6696 44 58.6668C44.502 58.6509 44.9953 58.532 45.4495 58.3176C45.9036 58.1031 46.3088 57.7977 46.64 57.4201L72.3067 28.0868C72.8993 27.351 73.1851 26.4148 73.1044 25.4735C73.0237 24.5322 72.5827 23.6583 71.8734 23.0342C71.1641 22.41 70.2413 22.0837 69.2974 22.1233C68.3534 22.163 67.4612 22.5654 66.8067 23.2468L44 49.6468L35.6034 41.3968Z" fill="#44FFFF"/>
<path d="M77.0001 40.333C76.0277 40.333 75.095 40.7193 74.4074 41.4069C73.7198 42.0946 73.3335 43.0272 73.3335 43.9997C73.3335 51.7794 70.243 59.2404 64.7419 64.7415C59.2409 70.2425 51.7798 73.333 44.0001 73.333C38.2071 73.3304 32.5446 71.6125 27.7266 68.396C22.9086 65.1795 19.1509 60.6084 16.9272 55.2592C14.7036 49.9099 14.1137 44.022 15.2318 38.3379C16.3499 32.6539 19.1261 27.4281 23.2101 23.3197C25.926 20.5674 29.1636 18.3845 32.7334 16.8987C36.3032 15.4128 40.1335 14.6539 44.0001 14.6663C46.3448 14.681 48.6808 14.9515 50.9668 15.473C51.4452 15.621 51.9488 15.6694 52.4466 15.6153C52.9444 15.5611 53.4258 15.4056 53.8612 15.1583C54.2966 14.911 54.6768 14.5771 54.9782 14.1773C55.2796 13.7774 55.496 13.3201 55.6139 12.8334C55.7318 12.3468 55.7487 11.8411 55.6637 11.3476C55.5787 10.8542 55.3936 10.3833 55.1196 9.96418C54.8457 9.54501 54.4888 9.1864 54.071 8.91045C53.6531 8.6345 53.1832 8.44705 52.6901 8.35967C49.8417 7.68956 46.9263 7.34514 44.0001 7.33301C36.756 7.37064 29.6854 9.55325 23.6805 13.6054C17.6757 17.6575 13.0057 23.3976 10.2599 30.1013C7.51411 36.8049 6.81558 44.1717 8.25246 51.272C9.68934 58.3722 13.1972 64.8878 18.3335 69.9963C25.1413 76.8073 34.3702 80.6439 44.0001 80.6663C53.7247 80.6663 63.051 76.8033 69.9274 69.9269C76.8037 63.0506 80.6668 53.7243 80.6668 43.9997C80.6668 43.0272 80.2805 42.0946 79.5928 41.4069C78.9052 40.7193 77.9726 40.333 77.0001 40.333Z" fill="#44FFFF"/>
</svg>
