<svg width="108" height="108" viewBox="0 0 108 108" fill="none" xmlns="http://www.w3.org/2000/svg">
<rect width="108" height="108" rx="54" fill="#152737"/>
<path d="M33.5 34H36.98C39.14 34 40.84 35.86 40.66 38L39 57.92C38.72 61.18 41.3 63.98 44.58 63.98H65.88C68.76 63.98 71.28 61.62 71.5 58.76L72.58 43.76C72.82 40.44 70.3 37.74 66.96 37.74H41.14" stroke="#44FFFF" stroke-width="2.5" stroke-miterlimit="10" stroke-linecap="round" stroke-linejoin="round"/>
<path opacity="0.4" d="M62 74C63.3808 74 64.5 72.8808 64.5 71.5C64.5 70.1192 63.3808 69 62 69C60.6192 69 59.5 70.1192 59.5 71.5C59.5 72.8808 60.6192 74 62 74Z" stroke="#44FFFF" stroke-width="2.5" stroke-miterlimit="10" stroke-linecap="round" stroke-linejoin="round"/>
<path opacity="0.4" d="M46 74C47.3807 74 48.5 72.8808 48.5 71.5C48.5 70.1192 47.3807 69 46 69C44.6193 69 43.5 70.1192 43.5 71.5C43.5 72.8808 44.6193 74 46 74Z" stroke="#44FFFF" stroke-width="2.5" stroke-miterlimit="10" stroke-linecap="round" stroke-linejoin="round"/>
<path opacity="0.4" d="M47.5 46H71.5" stroke="#44FFFF" stroke-width="2.5" stroke-miterlimit="10" stroke-linecap="round" stroke-linejoin="round"/>
</svg>
